<svg id="visual" viewBox="0 0 1920 1080" width="1920" height="1080" xmlns="http://www.w3.org/2000/svg" xmlns:xlink="http://www.w3.org/1999/xlink" version="1.1"><rect x="0" y="0" width="1920" height="1080" fill="#24201c"></rect><path d="M0 926L45.7 921.7C91.3 917.3 182.7 908.7 274.2 905.7C365.7 902.7 457.3 905.3 548.8 906.2C640.3 907 731.7 906 823 909.8C914.3 913.7 1005.7 922.3 1097 931C1188.3 939.7 1279.7 948.3 1371.2 948.5C1462.7 948.7 1554.3 940.3 1645.8 934.5C1737.3 928.7 1828.7 925.3 1874.3 923.7L1920 922L1920 1081L1874.3 1081C1828.7 1081 1737.3 1081 1645.8 1081C1554.3 1081 1462.7 1081 1371.2 1081C1279.7 1081 1188.3 1081 1097 1081C1005.7 1081 914.3 1081 823 1081C731.7 1081 640.3 1081 548.8 1081C457.3 1081 365.7 1081 274.2 1081C182.7 1081 91.3 1081 45.7 1081L0 1081Z" fill="#fa7268"></path><path d="M0 937L45.7 943.8C91.3 950.7 182.7 964.3 274.2 964.8C365.7 965.3 457.3 952.7 548.8 948.5C640.3 944.3 731.7 948.7 823 955C914.3 961.3 1005.7 969.7 1097 967.5C1188.3 965.3 1279.7 952.7 1371.2 950C1462.7 947.3 1554.3 954.7 1645.8 954.3C1737.3 954 1828.7 946 1874.3 942L1920 938L1920 1081L1874.3 1081C1828.7 1081 1737.3 1081 1645.8 1081C1554.3 1081 1462.7 1081 1371.2 1081C1279.7 1081 1188.3 1081 1097 1081C1005.7 1081 914.3 1081 823 1081C731.7 1081 640.3 1081 548.8 1081C457.3 1081 365.7 1081 274.2 1081C182.7 1081 91.3 1081 45.7 1081L0 1081Z" fill="#fe7f5c"></path><path d="M0 1009L45.7 1004.8C91.3 1000.7 182.7 992.3 274.2 991.2C365.7 990 457.3 996 548.8 1000.7C640.3 1005.3 731.7 1008.7 823 1007C914.3 1005.3 1005.7 998.7 1097 996.5C1188.3 994.3 1279.7 996.7 1371.2 992.5C1462.7 988.3 1554.3 977.7 1645.8 974.3C1737.3 971 1828.7 975 1874.3 977L1920 979L1920 1081L1874.3 1081C1828.7 1081 1737.3 1081 1645.8 1081C1554.3 1081 1462.7 1081 1371.2 1081C1279.7 1081 1188.3 1081 1097 1081C1005.7 1081 914.3 1081 823 1081C731.7 1081 640.3 1081 548.8 1081C457.3 1081 365.7 1081 274.2 1081C182.7 1081 91.3 1081 45.7 1081L0 1081Z" fill="#ff8e50"></path><path d="M0 1033L45.7 1033.8C91.3 1034.7 182.7 1036.3 274.2 1031C365.7 1025.7 457.3 1013.3 548.8 1011C640.3 1008.7 731.7 1016.3 823 1015.2C914.3 1014 1005.7 1004 1097 1002.2C1188.3 1000.3 1279.7 1006.7 1371.2 1009.8C1462.7 1013 1554.3 1013 1645.8 1017C1737.3 1021 1828.7 1029 1874.3 1033L1920 1037L1920 1081L1874.3 1081C1828.7 1081 1737.3 1081 1645.8 1081C1554.3 1081 1462.7 1081 1371.2 1081C1279.7 1081 1188.3 1081 1097 1081C1005.7 1081 914.3 1081 823 1081C731.7 1081 640.3 1081 548.8 1081C457.3 1081 365.7 1081 274.2 1081C182.7 1081 91.3 1081 45.7 1081L0 1081Z" fill="#ff9e45"></path><path d="M0 1060L45.7 1058C91.3 1056 182.7 1052 274.2 1051C365.7 1050 457.3 1052 548.8 1053.7C640.3 1055.3 731.7 1056.7 823 1057C914.3 1057.3 1005.7 1056.7 1097 1051.5C1188.3 1046.3 1279.7 1036.7 1371.2 1032.8C1462.7 1029 1554.3 1031 1645.8 1036.5C1737.3 1042 1828.7 1051 1874.3 1055.5L1920 1060L1920 1081L1874.3 1081C1828.7 1081 1737.3 1081 1645.8 1081C1554.3 1081 1462.7 1081 1371.2 1081C1279.7 1081 1188.3 1081 1097 1081C1005.7 1081 914.3 1081 823 1081C731.7 1081 640.3 1081 548.8 1081C457.3 1081 365.7 1081 274.2 1081C182.7 1081 91.3 1081 45.7 1081L0 1081Z" fill="#fbae3c"></path></svg>